<svg xmlns="http://www.w3.org/2000/svg" viewBox="20 20 1250 730" font-family="'Inter', ui-sans-serif, system-ui, -apple-system, 'Segoe UI', Roboto, sans-serif">
<defs><marker id="ag" viewBox="0 0 10 10" refX="9" refY="5" markerWidth="7" markerHeight="7" orient="auto-start-reverse"><path d="M0 0 L10 5 L0 10 z" fill="#64748b"/></marker><marker id="at" viewBox="0 0 10 10" refX="9" refY="5" markerWidth="7" markerHeight="7" orient="auto-start-reverse"><path d="M0 0 L10 5 L0 10 z" fill="#0d9488"/></marker></defs>
<rect x="20" y="20" width="1250" height="730" fill="#ffffff"/>
<text x="640" y="55" text-anchor="middle" font-size="24" font-weight="700" fill="#134e4a">Sirannon replication topology</text>
<rect x="60" y="255" width="1120" height="175" rx="18" fill="#f0fdfa" fill-opacity="0.35" stroke="#94a3b8" stroke-width="2" stroke-dasharray="9 7"/>
<text x="80" y="248" font-size="14" font-weight="600" fill="#64748b" letter-spacing="0.4">REPLICATION GROUP</text>
<line x1="620" y1="132" x2="620" y2="292" stroke="#64748b" stroke-width="2.5" marker-end="url(#ag)" stroke-linecap="round"/>
<line x1="545" y1="132" x2="235" y2="300" stroke="#64748b" stroke-width="2.5" marker-end="url(#ag)" stroke-linecap="round"/>
<line x1="695" y1="132" x2="1010" y2="300" stroke="#64748b" stroke-width="2.5" marker-end="url(#ag)" stroke-linecap="round"/>
<line x1="512" y1="347" x2="285" y2="347" stroke="#0d9488" stroke-width="2.5" marker-end="url(#at)" stroke-linecap="round"/>
<line x1="728" y1="347" x2="960" y2="347" stroke="#0d9488" stroke-width="2.5" marker-end="url(#at)" stroke-linecap="round"/>
<line x1="620" y1="415" x2="620" y2="565" stroke="#64748b" stroke-width="2.5" stroke-dasharray="7 6" marker-end="url(#ag)" stroke-linecap="round"/>
<line x1="250" y1="405" x2="500" y2="565" stroke="#64748b" stroke-width="2.5" stroke-dasharray="7 6" marker-end="url(#ag)" stroke-linecap="round"/>
<line x1="990" y1="405" x2="740" y2="565" stroke="#64748b" stroke-width="2.5" stroke-dasharray="7 6" marker-end="url(#ag)" stroke-linecap="round"/>
<rect x="470" y="92" width="300" height="74" rx="37" fill="#134e4a" stroke="#0f766e" stroke-width="2.5"/>
<text x="620" y="135" text-anchor="middle" font-size="18" font-weight="600" fill="#ffffff">Application clients</text>
<path d="M 512 307 L 512 393 A 108 15 0 0 0 728 393 L 728 307" fill="#0d9488" stroke="#0f766e" stroke-width="2.5"/>
<ellipse cx="620" cy="307" rx="108" ry="15" fill="#0d9488" stroke="#0f766e" stroke-width="2.5"/>
<text x="620" y="351.5" text-anchor="middle" font-size="18" font-weight="600" fill="#ffffff">Primary node</text>
<text x="620" y="372.5" text-anchor="middle" font-size="13.5" fill="#ffffff" opacity="0.92">accepts all writes</text>
<path d="M 90 315 L 90 385 A 95 15 0 0 0 280 385 L 280 315" fill="#f0fdfa" stroke="#14b8a6" stroke-width="2.5"/>
<ellipse cx="185" cy="315" rx="95" ry="15" fill="#f0fdfa" stroke="#14b8a6" stroke-width="2.5"/>
<text x="185" y="361.5" text-anchor="middle" font-size="18" font-weight="600" fill="#134e4a">Read replica</text>
<path d="M 960 315 L 960 385 A 95 15 0 0 0 1150 385 L 1150 315" fill="#f0fdfa" stroke="#14b8a6" stroke-width="2.5"/>
<ellipse cx="1055" cy="315" rx="95" ry="15" fill="#f0fdfa" stroke="#14b8a6" stroke-width="2.5"/>
<text x="1055" y="361.5" text-anchor="middle" font-size="18" font-weight="600" fill="#134e4a">Read replica</text>
<path d="M 495 580 L 495 658 A 125 15 0 0 0 745 658 L 745 580" fill="#f8fafc" stroke="#94a3b8" stroke-width="2.5"/>
<ellipse cx="620" cy="580" rx="125" ry="15" fill="#f8fafc" stroke="#94a3b8" stroke-width="2.5"/>
<text x="620" y="620.5" text-anchor="middle" font-size="18" font-weight="600" fill="#334155">etcd coordinator</text>
<text x="620" y="641.5" text-anchor="middle" font-size="13.5" fill="#334155" opacity="0.92">authority, leases, in-sync set</text>
<text x="628" y="205" font-size="14" font-weight="500" fill="#475569">writes</text>
<text x="300" y="205" font-size="14" font-weight="500" fill="#475569">reads + CDC</text>
<text x="838" y="205" font-size="14" font-weight="500" fill="#475569">reads + CDC</text>
<text x="408" y="700" font-size="14" font-weight="500" fill="#b91c1c">On primary failure, etcd fences the old term</text>
<text x="408" y="718" font-size="14" font-weight="500" fill="#b91c1c">and promotes an in-sync replica to primary.</text>
<rect x="980" y="92" width="262" height="120" rx="10" fill="#ffffff" stroke="#e2e8f0" stroke-width="1.5"/>
<text x="996" y="118" font-size="13" font-weight="700" fill="#334155" letter-spacing="0.4">LEGEND</text>
<line x1="996" y1="144" x2="1032" y2="144" stroke="#64748b" stroke-width="2.5" marker-end="url(#ag)"/>
<text x="1044" y="148" font-size="12.5" fill="#475569">Client traffic (HTTP / WebSocket)</text>
<line x1="996" y1="168" x2="1032" y2="168" stroke="#0d9488" stroke-width="2.5" marker-end="url(#at)"/>
<text x="1044" y="172" font-size="12.5" fill="#475569">Replication (gRPC + mTLS)</text>
<line x1="996" y1="192" x2="1032" y2="192" stroke="#64748b" stroke-width="2.5" stroke-dasharray="6 5" marker-end="url(#ag)"/>
<text x="1044" y="196" font-size="12.5" fill="#475569">Coordinator (leases, terms)</text>
</svg>